<svg version="1.1" id="pattern-p-1" xmlns="http://www.w3.org/2000/svg" xmlns:xlink="http://www.w3.org/1999/xlink" x="0" y="0" viewBox="0 0 664 664" style="enable-background:new 0 0 664 664" xml:space="preserve"><style></style><g style="opacity:.3254;enable-background:new"><defs><path id="SVGID_1_" d="M10.9 11.4h641.2v641.2H10.9z"/></defs><clipPath id="SVGID_00000165920037345550850600000015562732609850692028_"><use xlink:href="#SVGID_1_" style="overflow:visible"/></clipPath><g style="clip-path:url(#SVGID_00000165920037345550850600000015562732609850692028_)"><defs><path id="SVGID_00000009566006588084734610000008009042297551413898_" d="M38.2 38.6h586.7v586.7H38.2z"/></defs><clipPath id="SVGID_00000148655549308411907750000013372696472934925731_"><use xlink:href="#SVGID_00000009566006588084734610000008009042297551413898_" style="overflow:visible"/></clipPath><path style="clip-path:url(#SVGID_00000148655549308411907750000013372696472934925731_);fill:none;stroke:#fff;stroke-width:3.82;stroke-miterlimit:10" d="M330.2 241.3v-46.1M321.6 241.3l-4.6-46.1M312.4 242.5l-10.4-45M303.1 244.8l-15-43.8M295.1 249.4l-19.6-42.7M287 252.9l-24.2-40.4M277.8 258.6l-27.7-36.9M270.8 264.4l-32.3-35.8M263.9 271.3 228.2 239M258.1 278.3l-36.9-27.7M252.4 287.5 212 263.3M248.9 295.6l-42.7-19.7M244.3 303.6l-43.8-15M242 312.9l-45-10.4M240.8 322.1l-46.1-4.6M240.8 330.7h-46.1M240.8 340.5l-46.1 4.7M242 349.8l-45 10.4M244.3 359l-43.8 15M248.9 367.1l-42.7 19.6M252.4 375.2 212 399.4M258.1 384.4l-36.9 27.7M263.9 391.3l-35.7 32.3M270.8 398.2 238.5 434M277.8 404l-27.7 36.9M287 409.8l-24.2 40.3M295.1 413.2l-19.6 42.7M303.1 417.8l-15 43.9M312.4 420.1l-10.4 45M321.6 421.3l-4.6 46.1M330.2 421.3v46.1M340.1 421.3l4.6 46.1M349.3 420.1l10.4 45M358.5 417.8l15 43.9M366.6 413.2l19.6 42.7M374.7 409.8l24.2 40.3M383.9 404l27.7 36.9M390.8 398.2l32.3 35.8M397.7 391.3l35.8 32.3M403.5 384.4l36.9 27.7M409.3 375.2l40.3 24.2M412.7 367.1l42.7 19.6M417.3 359l43.9 15M419.7 349.8l44.9 10.4M420.8 340.5l46.2 4.7M420.8 330.7H467M420.8 322.1l46.2-4.6M419.7 312.9l44.9-10.4M417.3 303.6l43.9-15M412.7 295.6l42.7-19.7M409.3 287.5l40.3-24.2M403.5 278.3l36.9-27.7M397.7 271.3l35.8-32.3M390.8 264.4l32.3-35.8M383.9 258.6l27.7-36.9M374.7 252.9l24.2-40.4M366.6 249.4l19.6-42.7M358.5 244.8l15-43.8M349.3 242.5l10.4-45M340.1 241.3l4.6-46.1M330.2 163.9v-46.3M312.3 165l-4.6-46.2M296.1 167.3l-10.4-45.1M278.8 171.9l-15-43.9M262.6 178.9l-19.7-42.8M246.4 187l-24.3-40.5M232.5 196.2l-27.7-37M218.7 207.8l-32.4-35.9M205.9 220.5l-35.8-32.4M194.4 234.4l-37-27.8M185.1 248.3 144.7 224M177 264.5l-42.8-19.7M170.1 280.6l-43.9-15M165.5 298l-45.1-10.4M163.2 314.2l-46.3-4.6M162 332.1h-46.3M163.2 351.2l-46.3 4.6M165.5 367.4l-45.1 10.4M170.1 384.7l-43.9 15M177 400.9l-42.8 19.7M185.1 417.1l-40.4 24.3M194.4 431l-37 27.7M205.9 444.8l-35.8 32.4M218.7 457.6l-32.4 35.8M232.5 469.1l-27.7 37M246.4 478.4l-24.3 40.5M262.6 486.5l-19.7 42.8M278.8 493.4l-15 44M296.1 498l-10.4 45.1M312.3 500.4l-4.6 46.2M330.2 501.5v46.3M349.3 500.4l4.7 46.2M365.5 498l10.4 45.1M382.9 493.4l15 44M399 486.5l19.7 42.8M415.2 478.4l24.3 40.5M429.1 469.1l27.8 37M443 457.6l32.4 35.8M455.7 444.8l35.9 32.4M467.3 431l37 27.7M476.5 417.1l40.5 24.3M484.6 400.9l42.8 19.7M491.6 384.7l43.9 15M496.2 367.4l45.1 10.4M498.5 351.2l46.2 4.6M499.7 332.1h46.2M498.5 314.2l46.2-4.6M496.2 298l45.1-10.4M491.6 280.6l43.9-15M484.6 264.5l42.8-19.7M476.5 248.3 517 224M467.3 234.4l37-27.8M455.7 220.5l35.9-32.4M443 207.8l32.4-35.9M429.1 196.2l27.8-37M415.2 187l24.3-40.5M399 178.9l19.7-42.8M382.9 171.9l15-43.9M365.5 167.3l10.4-45.1M349.3 165l4.7-46.2M330.9 84.8V38.6M304.9 86l-4.6-46.2M280.7 90.6l-10.4-45M255.3 97.5l-15-43.8M231 106.8l-19.6-42.7M209.1 118.3l-24.3-40.4M187.1 132.2l-27.7-37M166.3 149.5 134 113.7M149 166.8l-35.8-32.3M131.7 187.6l-37-27.7M117.8 209.6l-40.4-24.3M106.3 231.5l-42.7-19.6M97.1 255.8l-43.9-15M90.1 281.2l-45-10.4M85.5 305.4l-46.2-4.6M84.3 331.4H38.2M85.5 358.6l-46.2 4.6M90.1 382.8l-45 10.4M97.1 408.2l-43.9 15M106.3 432.5l-42.7 19.6M117.8 454.4l-40.4 24.3M131.7 476.4l-37 27.7M149 497.2l-35.8 32.3M166.3 514.5 134 550.3M187.1 531.8l-27.7 37M209.1 545.7l-24.3 40.4M231 557.2l-19.6 42.7M255.3 566.5l-15 43.8M280.7 573.4l-10.4 45M304.9 578l-4.6 46.2M330.9 579.2v46.2M358.1 578l4.6 46.2M382.3 573.4l10.4 45M407.7 566.5l15 43.8M432 557.2l19.6 42.7M453.9 545.7l24.3 40.4M475.9 531.8l27.7 37M496.7 514.5l32.3 35.8M514 497.2l35.8 32.3M531.3 476.4l37 27.7M545.2 454.4l40.4 24.3M556.7 432.5l42.8 19.6M566 408.2l43.8 15M572.9 382.8l45 10.4M577.5 358.6l46.2 4.6M578.7 331.4h46.2M577.5 305.4l46.2-4.6M572.9 281.2l45-10.4M566 255.8l43.8-15M556.7 231.5l42.8-19.6M545.2 209.6l40.4-24.3M531.3 187.6l37-27.7M514 166.8l35.8-32.3M496.7 149.5l32.3-35.8M475.9 132.2l27.7-37M453.9 118.3l24.3-40.4M432 106.8l19.6-42.7M407.7 97.5l15-43.8M382.3 90.6l10.4-45M358.1 86l4.6-46.2"/></g></g></svg>